<?xml version="1.0" encoding="utf-8"?>
<!-- Generator: Adobe Illustrator 24.0.1, SVG Export Plug-In . SVG Version: 6.00 Build 0)  -->
<svg version="1.1" id="Camada_1" xmlns="http://www.w3.org/2000/svg" xmlns:xlink="http://www.w3.org/1999/xlink" x="0px" y="0px"
	 viewBox="0 0 1017 242.3" style="enable-background:new 0 0 1017 242.3;" xml:space="preserve">
<style type="text/css">
	.st0{fill:none;}
	.st1{fill:#A8A8A8;}
	.st2{fill:#808080;}
	.st3{fill:#636363;}
	.st4{fill-rule:evenodd;clip-rule:evenodd;fill:#808080;}
	.st5{fill:#2B2B2B;}
	.st6{fill-rule:evenodd;clip-rule:evenodd;fill:#636363;}
	.st7{fill-rule:evenodd;clip-rule:evenodd;fill:#2B2B2B;}
	.st8{fill-rule:evenodd;clip-rule:evenodd;fill:#A8A8A8;}
</style>
<title>canais</title>
<g id="Camada_2_1_">
	<g id="Camada_4">
		<polygon class="st0" points="148.1,169.7 146.3,190.1 149.9,190.1 		"/>
		<polygon class="st0" points="21.8,185.4 21.8,183.7 18.5,212.9 24.4,212.9 		"/>
		<path class="st0" d="M57.6,215.5c-0.8-0.5-1.7-0.7-2.6-0.5v8.8c0,0,2,0.5,2.9-0.7c0.8-1,0.7-2.1,0.7-3.9S58.6,216.3,57.6,215.5z"
			/>
		<polygon class="st0" points="96.6,231.3 100.3,231.3 98.4,219.7 		"/>
		<polygon class="st1" points="114.9,166.9 77.4,174.8 77.4,183.4 115.8,192.5 77.4,192.5 77.4,205.4 138,205.4 138,186.1 
			111.1,179.9 138.4,175.2 138.4,154.7 77.7,154.7 77.7,166.9 		"/>
		<path class="st2" d="M15.3,242.3l1.9-13.8h8.6l1.4,13.8h16.7L32,154.7H11.6L0,242.3H15.3z M21.8,183.7v1.7l2.6,27.6h-5.9
			L21.8,183.7z"/>
		<polygon class="st2" points="46.4,205.4 46.4,179.9 52.6,205.4 57.5,205.4 57.5,154.7 52.2,154.7 52.2,181.1 47.1,154.7 
			41.4,154.7 41.4,205.4 		"/>
		<rect x="60.7" y="154.7" class="st2" width="13.2" height="50.7"/>
		<path class="st2" d="M145.3,205.4l0.8-9.2h4.2l0.8,9.2h5l-4.7-50.7H145l-4.7,50.7H145.3z M148.1,169.7l1.8,20.4h-3.7L148.1,169.7z
			"/>
		<polygon class="st2" points="169.8,154.7 158.4,154.7 158.4,205.4 178.9,205.4 178.9,195.4 169.8,195.4 		"/>
		<path class="st3" d="M64.3,228.4c1.3-1.4,2-3.2,1.9-5.1v-7.9c0-2.5-1.5-7-9.7-7H46.1v33.9h9v-11.6h4
			C61,230.6,62.9,229.8,64.3,228.4z M57.9,223c-0.9,1.2-2.9,0.7-2.9,0.7V215c0.9-0.2,1.8,0,2.5,0.5c1,0.8,1,1.7,1,3.6
			S58.7,222,57.9,223z"/>
		<polygon class="st3" points="68.5,208.3 68.5,242.3 85.4,242.3 85.4,235.2 77.4,235.2 77.4,208.3 		"/>
		<path class="st3" d="M103.5,208.3H93.3l-6.7,33.9h8.8l0.8-4.2h4.5l0.8,4.2h8.8L103.5,208.3z M96.6,231.3l1.8-11.6l1.8,11.6H96.6z"
			/>
		<polygon class="st3" points="136.6,208.3 128.4,208.3 128.4,224.6 119.8,208.3 112.1,208.3 112.1,242.3 120,242.3 120,226.8 
			129.4,242.3 136.6,242.3 		"/>
		<polygon class="st3" points="138.8,242.3 156.2,242.3 156.2,235.6 147.8,235.6 147.8,228 156.2,228 156.2,221.7 147.8,221.7 
			147.8,215 156.2,215 156.2,208.3 138.8,208.3 		"/>
		<polygon class="st3" points="158.4,214.8 164.1,214.8 164.1,242.3 173,242.3 173,214.8 178.9,214.8 178.9,208.3 158.4,208.3 		"/>
		<polygon class="st3" points="172.6,194.4 172.6,192.2 173.4,192.2 173.4,191.8 171.3,191.8 171.3,192.2 172,192.2 172,194.4 		"/>
		<polygon class="st3" points="176.5,194.4 176.5,191.8 175.7,191.8 175.1,193.6 175.1,193.6 174.5,191.8 173.7,191.8 173.7,194.4 
			174.2,194.4 174.2,192.5 174.3,192.5 174.9,194.4 175.3,194.4 176,192.5 176,192.5 176,194.4 		"/>
		<path class="st4" d="M230.9,156.8h31.8l-16.7,56.1c-1.2,3.9,1.3,7.2,5.4,7.2l0,0c4.3-0.2,8.1-3.1,9.5-7.2l16.7-56.1h28.2
			l-19.3,71.8c-1.7,6.3-8.5,11.5-15,11.5h-48.8c-7.8,0-12.5-6.2-10.5-13.7L230.9,156.8z"/>
		<polygon class="st4" points="326.2,240.1 295.5,240.1 310.5,187.4 341.3,187.4 341.3,187.4 373.9,187.4 368,206.9 335.3,206.9 
			326.2,240.1 		"/>
		<path class="st4" d="M404.8,155.9h41.5c6.1,0,16.4,4.9,14.3,12.6l-0.8,3h-37.1c-2,0.1-3.8,1.5-4.4,3.4l-11.5,41.7
			c-0.5,1.3,0.2,2.8,1.5,3.2c0.3,0.1,0.7,0.2,1,0.2h37.2l-2.7,9.9c-1.6,5.7-7.7,10.5-13.8,10.5h-43.9c-7.7,0-12.5-6-10.6-13.3
			l16.2-61.4C393.3,160.3,399.1,155.9,404.8,155.9L404.8,155.9z"/>
		<path class="st4" d="M377.2,176.1h-32.6v0.1h-30.7l5.9-20.4h63.3L377.2,176.1z"/>
		<g id="g39">
			<polygon id="polygon27" class="st1" points="520.3,173.6 999.9,173.6 999.9,229.5 520.3,229.5 			"/>
			<path id="path29" class="st5" d="M632.9,195.3v-7.4c0-1-0.8-1.8-1.7-1.9c0,0-0.1,0-0.1,0h-32.7c-1,0-1.8,0.8-1.8,1.7
				c0,0,0,0.1,0,0.1v9.5c0.5,0,1.3-0.3,1.8-0.3H631c1,0.1,1.8-0.7,1.9-1.7C632.9,195.3,632.9,195.3,632.9,195.3z"/>
			<path id="path31" class="st5" d="M914.6,195.3v-7.4c0-1-0.8-1.8-1.7-1.9c0,0-0.1,0-0.1,0H880c-1,0-1.8,0.8-1.8,1.7
				c0,0,0,0.1,0,0.1v9.5c0.5,0,1.3-0.3,1.8-0.3h32.8c1,0,1.8-0.8,1.8-1.7C914.6,195.3,914.6,195.3,914.6,195.3L914.6,195.3z"/>
			<g id="g37">
				<path id="path33" class="st5" d="M564.7,186h-33c-1,0-1.8,0.8-1.8,1.7c0,0,0,0.1,0,0.1v9.5c0.5,0,1.3-0.3,1.8-0.3h33
					c1,0,1.8-0.8,1.8-1.7c0,0,0-0.1,0-0.1v-7.4c0-1-0.8-1.8-1.7-1.9C564.8,186,564.7,186,564.7,186z"/>
				<path id="path35" class="st5" d="M986.2,185.5h-38.6c-1.3,0-1.8,0.8-1.8,1.6v6.1h40.4v9.5h-40.4v7.1c0.1,0.9,0.9,1.6,1.8,1.6
					h38.6v9.8h-38.6c-7.9,0-12.4-5.8-12.4-11.4v-21.9c0-4.8,4-11.6,11.6-11.6h39.4V185.5z M912.2,221.1l-14.3-14.3h-17.7
					c-1,0-1.8,0.8-1.8,1.7c0,0,0,0.1,0,0.1v9l0,0v3.7h-9.8v-33.6c0.1-6.4,5.2-11.6,11.6-11.6H913c6.4,0.1,11.6,5.2,11.6,11.6v7.4
					c-0.1,6.4-5.2,11.6-11.6,11.6h-1.3l14.5,14.3L912.2,221.1z M857.5,185.5h-38.6c-1.3,0-1.8,0.8-1.8,1.6v6.1h40.4v9.5h-40.4v7.1
					c0.1,0.9,0.9,1.6,1.8,1.6h38.6v9.8h-38.6c-7.9,0-12.4-5.8-12.4-11.4v-21.9c0-4.8,4-11.6,11.6-11.6h39.4V185.5z M795.7,221.4
					h-10.6V176h10.6V221.4z M774.3,221.2H764v-32l-14.5,26.7h-8.8l-15.3-26.7v32.2h-10.3v-45.2h12.4l16.9,29.6l17.4-29.6H774v44.9
					L774.3,221.2z M704.5,185.5h-38.6c-1.3,0-1.8,0.8-1.8,1.6v6.1h40.4v9.5h-40.4v7.1c0.1,0.9,0.9,1.6,1.8,1.6h38.6v9.8h-38.6
					c-7.9,0-12.4-5.8-12.4-11.4v-21.9c0-4.8,4-11.6,11.6-11.6h39.4V185.5z M630.5,221.1l-14.3-14.3h-17.7c-1,0-1.8,0.8-1.8,1.7
					c0,0,0,0.1,0,0.1v9l0,0v3.7h-10v-33.6c0.1-6.4,5.2-11.6,11.6-11.6H631c6.4,0.1,11.6,5.2,11.6,11.6v7.4
					c-0.1,6.4-5.2,11.6-11.6,11.6h-1l14.5,14.3L630.5,221.1z M575.8,195.3c-0.1,6.4-5.2,11.6-11.6,11.6h-32.5c-1,0-1.8,0.8-1.8,1.7
					c0,0,0,0.1,0,0.1v12.7H520v-4l0,0v-29.6c0.1-6.4,5.2-11.6,11.6-11.6h32.5c6.4,0.1,11.6,5.2,11.6,11.6V195.3z M1006.8,157.2
					H499.4c-4.4,0-7.9,3.6-7.9,7.9v67.4c0,4.4,3.6,7.9,7.9,7.9h507.4c4.4,0,7.9-3.6,7.9-7.9v-67.4c0.1-4.3-3.3-7.8-7.6-7.9
					C1007,157.2,1006.9,157.2,1006.8,157.2L1006.8,157.2z"/>
			</g>
		</g>
		<g>
			<path class="st2" d="M491.9,113.9h-3.5l-1.1-0.1c-0.6,0-1.6-0.2-2.3-0.2c-0.7-0.1-2-0.3-3-0.5s-2.2-0.5-2.9-0.7
				c-0.7-0.2-1.9-0.6-2.6-0.9c-0.7-0.3-1.8-0.7-2.4-1.1c-0.6-0.3-1.6-0.8-2.1-1.1c-0.6-0.3-1.5-0.9-2.1-1.3c-0.6-0.4-1-0.7-1-0.7
				c0,0,2.5-2.2,5.5-4.9c3-2.7,5.6-5,5.7-5.1l0.2-0.1l1,0.5c0.5,0.3,1.6,0.7,2.3,1.1c0.8,0.3,1.9,0.7,2.5,0.9
				c0.6,0.2,1.6,0.4,2.1,0.5l1,0.2l1.3,0.1l1.3,0.1l0.8-0.1l0.8-0.1l0.6-0.2l0.6-0.2l0.5-0.4l0.5-0.4l0.2-0.4l0.2-0.4v-0.7l-0.2-0.4
				l-0.2-0.4l-0.3-0.3c-0.3-0.2-0.7-0.4-1.1-0.6l-0.7-0.3l-1.3-0.3l-1.3-0.3l-2.9-0.6c-1.6-0.3-3.3-0.7-3.8-0.8
				c-0.5-0.1-1.6-0.5-2.5-0.8c-0.9-0.3-2.1-0.7-2.7-1c-0.6-0.3-1.5-0.7-2.1-1s-1.4-0.8-1.8-1.1c-0.4-0.3-1.1-0.8-1.5-1.1
				c-0.4-0.4-0.9-0.9-1.3-1.3c-0.3-0.4-0.8-0.9-1-1.2c-0.2-0.3-0.6-0.8-0.8-1.2c-0.3-0.5-0.5-1-0.8-1.6l-0.4-0.9l-0.2-1.1l-0.2-1.1
				v-1.3l-0.1-1.3l0.1-1.2l0.1-1.2l0.2-1c0.1-0.5,0.4-1.3,0.5-1.7s0.5-1.1,0.7-1.6s0.6-1.2,0.9-1.6c0.2-0.4,0.7-1,1-1.4
				c0.3-0.4,0.9-1,1.3-1.4c0.4-0.4,1.1-0.9,1.4-1.2c0.3-0.2,0.9-0.7,1.4-1l0.8-0.5l1.3-0.6c0.7-0.3,1.7-0.8,2.1-0.9
				c0.5-0.2,1.2-0.4,1.7-0.5c0.5-0.1,1.4-0.4,2.1-0.5c0.7-0.1,1.7-0.3,2.3-0.4l1.1-0.2l2.6-0.1h2.6l1.8,0.1c1,0.1,2.5,0.2,3.3,0.3
				l1.5,0.2l1.7,0.3l1.7,0.3l1.4,0.4c0.7,0.2,2,0.6,2.7,0.9l1.4,0.5l1.6,0.8l1.6,0.8l1.4,0.9c0.5,0.3,0.9,0.6,1.4,1
				c0,0-2.5,2.3-5.6,5.1l-5.7,5H503l-1.6-0.7c-0.8-0.4-2.1-0.9-2.8-1.2c-0.7-0.3-1.8-0.6-2.4-0.7c-0.6-0.2-1.5-0.4-2.1-0.5l-1-0.2
				h-2.6l-0.7,0.2l-0.7,0.2l-0.5,0.4l-0.5,0.4l-0.2,0.4l-0.2,0.4v1.1l0.1,0.3l0.1,0.3l0.3,0.3c0.2,0.2,0.4,0.4,0.7,0.6
				c0.4,0.2,0.8,0.4,1.2,0.5c0.5,0.2,1.3,0.4,1.9,0.5s2.2,0.5,3.7,0.8l2.6,0.6l1.5,0.5c0.8,0.2,2.1,0.7,2.9,1l1.4,0.5l1.3,0.6
				l1.2,0.6l1.1,0.7l1.1,0.7l1.1,1.1l1.1,1.1l0.5,0.7c0.3,0.4,0.6,0.9,0.8,1.3c0.2,0.5,0.4,0.9,0.6,1.4c0.2,0.5,0.4,1.2,0.5,1.7
				l0.2,0.8v4.5l-0.2,1.1l-0.2,1.1l-0.4,1l-0.4,1.1l-0.5,1l-0.5,1l-0.6,0.9l-0.6,0.9l-0.9,0.9l-0.9,0.9l-0.8,0.6
				c-0.4,0.4-1.2,0.9-1.7,1.2c-0.5,0.3-1.4,0.8-2.1,1.1l-1.2,0.6l-1.3,0.5l-1.3,0.4l-1.1,0.2c-0.6,0.1-1.7,0.3-2.5,0.5l-1.4,0.2
				L491.9,113.9L491.9,113.9z M601.3,113.9h-2.8l-1.1-0.1c-0.6-0.1-1.5-0.2-2-0.3c-0.5-0.1-1.4-0.3-2-0.4s-1.7-0.5-2.3-0.7
				c-0.6-0.2-1.6-0.6-2.1-0.8c-0.5-0.2-1.4-0.7-1.9-1c-0.6-0.3-1.5-0.9-2.1-1.3c-0.6-0.4-1.5-1.1-2-1.4c-0.4-0.3-1.3-1.1-1.9-1.7
				l-1.1-1.1l-0.8-1c-0.5-0.5-1.1-1.4-1.4-1.9c-0.4-0.5-0.9-1.4-1.2-2c-0.3-0.6-0.8-1.5-1.1-2s-0.6-1.4-0.7-1.8s-0.5-1.5-0.7-2.3
				l-0.4-1.5l-0.2-1.1c-0.1-0.6-0.2-1.8-0.3-2.6l-0.1-1.6l0.1-1.7l0.1-1.7l0.2-1.1c0.1-0.6,0.3-1.7,0.5-2.4c0.2-0.7,0.5-1.6,0.6-2.1
				s0.5-1.2,0.7-1.6c0.2-0.5,0.6-1.3,0.9-1.8c0.3-0.5,0.8-1.5,1.2-2s1.1-1.5,1.5-2.1l0.8-1.1l1.1-1.1l1.1-1.1l1.1-0.8
				c0.6-0.5,1.5-1.1,2.1-1.5s1.5-0.9,2-1.2c0.5-0.3,1.2-0.6,1.6-0.8c0.4-0.2,1.1-0.5,1.6-0.7c0.6-0.2,1.5-0.5,2.1-0.7
				s1.6-0.4,2.1-0.5c0.6-0.1,1.6-0.3,2.3-0.4l1.3-0.2l2.3-0.1h2.3l1.6,0.2l1.6,0.2l1.4,0.3c0.8,0.2,1.8,0.4,2.3,0.5
				c0.5,0.1,1.4,0.5,2,0.7l1.1,0.4l1.7,0.8l1.7,0.8l1.1,0.8c0.6,0.4,1.5,1.1,2,1.4c0.5,0.4,1.3,1.1,1.8,1.6l1,0.9l0.8,1l0.8,1
				l0.7,1.4l0.9,1.3l0.8,1.7l0.8,1.7l0.5,1.5l0.5,1.5l0.3,1.5c0.2,0.8,0.3,1.9,0.4,2.5l0.1,1.1v4.1l-0.2,1.2c-0.1,0.7-0.2,1.5-0.3,2
				c-0.1,0.4-0.3,1.3-0.5,2s-0.5,1.6-0.7,2.1c-0.2,0.5-0.7,1.6-1.1,2.3l-0.7,1.4l-0.9,1.3c-0.5,0.7-1.2,1.7-1.6,2.1
				c-0.4,0.4-1.2,1.4-1.8,2L620,107l-1,0.8c-0.5,0.4-1.4,1.1-2,1.4c-0.5,0.4-1.5,0.9-2.1,1.2c-0.6,0.3-1.5,0.8-2.1,1.1l-1.1,0.5
				l-1.6,0.5l-1.6,0.5l-1.2,0.3c-0.7,0.1-1.7,0.3-2.2,0.4l-1.1,0.2L601.3,113.9L601.3,113.9z M601,98.8h1.3l0.8-0.2
				c0.5-0.1,1-0.2,1.5-0.4c1.3-0.4,2.6-1.2,3.6-2.1l0.6-0.6l0.6-0.7l0.6-0.8l0.4-0.8l0.4-0.8l0.3-0.9c0.2-0.5,0.3-1.1,0.5-1.7
				l0.2-0.8l0.1-1.1l0.1-1.1l-0.1-1.1l-0.1-1.1l-0.2-0.9l-0.2-0.9l-0.4-0.9l-0.4-0.9l-0.6-0.9l-0.6-0.9l-0.9-0.8l-0.8-0.8l-0.6-0.4
				c-0.4-0.3-0.8-0.5-1.2-0.7c-0.5-0.2-0.9-0.4-1.4-0.6l-0.8-0.2l-0.8-0.1l-0.8-0.1h-1.2h-1.2l-1,0.2l-1,0.2l-0.8,0.4l-0.8,0.4
				l-0.8,0.6l-0.8,0.6l-0.5,0.5c-0.3,0.4-0.6,0.7-0.9,1.1c-0.3,0.4-0.6,0.9-0.9,1.4l-0.4,0.8l-0.3,0.9c-0.2,0.5-0.3,1.1-0.5,1.7
				l-0.2,0.8l-0.1,1.1l-0.1,1.1l0.1,1l0.1,1l0.2,0.9l0.2,0.9l0.3,0.8c0.2,0.5,0.5,1.1,0.8,1.6l0.5,0.8l0.9,0.9l0.9,0.9l0.7,0.5
				c0.4,0.3,0.8,0.5,1.2,0.7c0.2,0.1,0.7,0.3,1.1,0.5c0.3,0.1,1,0.3,1.5,0.4l0.8,0.2L601,98.8z M527.1,113.5h-8.3V61.3h16.5v18.1
				h16.9V61.3h16v52.3h-16V95.5h-16.9v18.1L527.1,113.5z M642.4,113.5h-8.6V61.3h16.3v24.8h0.1c0,0,2.7-3.9,6-8.8l5.9-8.8h0.2
				l5.9,8.8l5.9,8.8V73.7V61.3h17.3v52.3h-9.1h-9.1l-5.4-8.7c-3-4.8-5.5-8.8-5.6-8.8l-0.1-0.1l-5.4,8.8l-5.5,8.9L642.4,113.5z
				 M558.5,55.1l-1.2-0.1c-0.4,0-1.4-0.1-2.1-0.1c-0.8-0.1-1.9-0.2-2.6-0.3c-0.7-0.1-1.7-0.3-2.1-0.4s-1.3-0.3-1.8-0.5
				c-0.5-0.1-1.4-0.4-2-0.7c-0.6-0.2-1.5-0.7-2.1-0.9s-1.4-0.8-1.9-1.1s-1.1-0.8-1.4-1c-0.4-0.2-1-0.8-1.5-1.3
				c-0.5-0.5-1.1-1.2-1.4-1.5c-0.4-0.4-0.8-1.1-1.1-1.5c-0.3-0.4-0.8-1.2-1.1-1.8c-0.3-0.6-0.7-1.5-0.9-2c-0.2-0.6-0.5-1.5-0.7-2
				c-0.2-0.6-0.4-1.6-0.5-2.3s-0.3-1.8-0.4-2.6l-0.2-1.3V18.3V2.8h18.1v14.5v14.5l0.2,1.1l0.2,1.1l0.3,0.8l0.2,0.8l0.4,0.8L553,37
				l0.8,0.8l0.8,0.8l0.7,0.3l0.7,0.4l0.6,0.2l0.6,0.2h3.1l0.6-0.2l0.6-0.2l0.7-0.4l0.7-0.4l0.8-0.8l0.8-0.8l0.5-0.9l0.5-0.9l0.2-0.6
				c0.1-0.4,0.2-1,0.3-1.4l0.2-0.8V17.5V2.8h18.5v15.6V34l-0.2,1.2c-0.1,0.7-0.2,1.7-0.4,2.2c-0.1,0.6-0.4,1.6-0.5,2.3l-0.3,1.2
				l-0.5,1.1c-0.3,0.6-0.7,1.6-1,2.1c-0.3,0.5-0.7,1.2-0.9,1.5c-0.2,0.3-0.7,1-1,1.4l-0.6,0.8l-1,1l-1,0.9l-0.8,0.6
				c-0.5,0.3-1.3,0.9-1.8,1.2s-1.3,0.7-1.8,1c-0.5,0.2-1.3,0.6-1.8,0.8c-0.5,0.2-1.4,0.5-2,0.7c-0.6,0.2-1.6,0.4-2.3,0.5
				c-0.7,0.1-1.8,0.3-2.5,0.4l-1.3,0.2l-2,0.1C559.8,55.1,558.8,55.1,558.5,55.1L558.5,55.1z M610.4,54h-20.6V2.9h16.7v36.7H631V54
				H610.4z M646,54h-8.3V17.3h-14.4V2.9h45.6v14.4h-7.2h-7.2v18.3v18.3L646,54z M682.6,54h-8.3V2.9H691V54H682.6z M478.3,53.5h-8.4
				V2.8h17.8l5.5,8.8c3,4.9,5.5,8.8,5.6,8.8s2.5-4,5.6-8.8l5.5-8.8h17.3v50.7H511V41.6V29.7l-6,8.8c-3.3,4.8-6.1,8.8-6.1,8.8
				c-0.1,0-2.8-4-6.1-8.8l-6-8.8v11.9v11.9L478.3,53.5z"/>
			<path id="path4-9" class="st1" d="M93.1,0.7h93.3v93.2H93.1C93.1,93.9,93.1,0.7,93.1,0.7z"/>
			<path id="path4" class="st5" d="M0,0.7h93.2v93.2H0V0.7z"/>
			<path id="path8" class="st1" d="M44.9,5.8c11.9-1.3,23.8,2.7,32.6,10.9c3.1,2.9,5.8,6.2,7.9,9.9c-7.7,4.4-15.4,8.8-23.2,13.2
				c-1.5-2.7-3.8-4.8-6.6-6.1c-5.8-2.7-12.7-1.5-17.2,3.1c-5.7,6-5.5,15.4,0.5,21.1s15.4,5.5,21.1-0.5c0.8-0.9,1.5-1.8,2.1-2.9
				c7.7,4.5,15.4,8.8,23.2,13.3c-11.4,20-36.9,26.9-56.8,15.4S1.7,46.5,13.1,26.5C19.8,14.9,31.6,7.2,44.9,5.8z"/>
			<path id="path10" class="st5" d="M99.9,7.3h26.6c8.9,11.1,17.8,22.2,26.7,33.3c0-11.1,0-22.2,0-33.3h26.6c0,26.6,0,53.3,0,79.9
				H179c-2.3,0-4.6,0-6.9,0c-4.1,0-8.1,0-12.1,0c-2.3,0-4.6,0-6.9,0c-8.9-11.1-17.7-22.2-26.6-33.3c0,11.1,0,22.2,0,33.3
				c-1.4,0-2.7,0-4.1,0h-0.6c-7.2,0-14.3,0-21.5,0H100C99.9,60.6,99.9,34,99.9,7.3z"/>
			<path id="path12" class="st1" d="M5.6,101.4c1.5-1.1,3.4-1.4,5.1-0.8c1.5,0.4,2.7,1.4,3.5,2.7c-1.1,0.6-2,1.2-3.1,1.8
				c-0.5-0.8-1.4-1.2-2.4-1.1c-1.3,0.1-2.3,1.3-2.1,2.6c0.1,1.2,1.1,2.1,2.3,2.1c0.9,0,1.7-0.4,2.1-1.2c1,0.6,2,1.2,3.1,1.8
				c-1,1.7-2.8,2.8-4.8,3H8.6c-2.2-0.2-4.1-1.5-5-3.5c-0.5-1.1-0.6-2.3-0.5-3.4C3.4,103.8,4.3,102.4,5.6,101.4z"/>
			<path id="path14" class="st1" d="M57.9,100.4c-1.5,0-3,0.7-4,1.8c-1.1,1.1-1.7,2.5-1.7,4c0,1.4,0.5,2.7,1.3,3.8
				c1,1.2,2.4,2,4,2.1h1.2c1.6-0.2,3-1,4-2.2c1-1.2,1.4-2.8,1.3-4.4c-0.3-3-2.8-5.2-5.8-5.3L57.9,100.4z M58.1,104.1
				c1.2,0.1,2.1,1.1,2,2.3c-0.1,1.2-1.1,2.1-2.3,2c-1-0.1-1.8-0.9-1.9-1.9c-0.1-1,0.5-1.9,1.4-2.3C57.6,104.2,57.8,104.2,58.1,104.1
				L58.1,104.1z"/>
			<path id="path16" class="st1" d="M70.9,100.4c-0.4,0-0.7,0-1.1,0.1c-3.2,0.6-5.3,3.7-4.7,7c0.3,1.6,1.2,2.9,2.6,3.8
				c0.8,0.5,1.7,0.8,2.7,1h1.2c3.3-0.4,5.7-3.3,5.3-6.6c0-0.2-0.1-0.5-0.1-0.7c-0.4-1.6-1.4-2.9-2.8-3.8
				C73,100.6,72,100.4,70.9,100.4z M71,104.1c1.2,0,2.1,1,2.1,2.1c0,1.2-0.9,2.2-2.1,2.2c-1.2,0-2.2-0.9-2.2-2.1
				c0-0.2,0-0.4,0.1-0.6c0.2-0.8,0.8-1.4,1.6-1.6C70.7,104.2,70.8,104.2,71,104.1z"/>
			<path id="path18" class="st1" d="M153.3,100.4c-3.3,0-5.9,2.7-5.9,6c0,1.1,0.3,2.2,0.9,3.2c1,1.6,2.7,2.6,4.5,2.8h1.1
				c1.4-0.2,2.7-0.8,3.7-1.7c0.9-1,1.5-2.2,1.7-3.5c0.2-1.4-0.2-2.7-0.9-3.9c-1-1.5-2.5-2.5-4.3-2.7
				C153.8,100.4,153.5,100.4,153.3,100.4z M153.2,104.1c1.2-0.1,2.2,0.8,2.3,2c0.1,1.2-0.8,2.2-2,2.3s-2.2-0.8-2.3-2
				c0-0.9,0.5-1.7,1.3-2.1C152.7,104.2,152.9,104.1,153.2,104.1z"/>
			<path id="path20" class="st1" d="M23.6,100.6h-5.7c-1.1,3.8-2.3,7.6-3.5,11.4h4c0.2-0.6,0.4-1.3,0.5-1.9c1.2,0,2.4,0,3.6,0
				c0.2,0.6,0.4,1.3,0.6,1.9h4C26,108.2,24.8,104.4,23.6,100.6z M20.7,103.8c0.4,1.2,0.7,2.3,1.1,3.5h-2
				C20.1,106.1,20.4,104.9,20.7,103.8L20.7,103.8z"/>
			<path id="path22" class="st1" d="M28.3,100.6V112h3.8c0-1.1,0-2.2,0-3.3h1.2L35,112c1.4,0,2.8,0,4.2,0c-0.7-1.3-1.5-2.5-2.1-3.7
				c0.2-0.2,0.4-0.3,0.6-0.4c1.1-0.8,1.7-2,1.7-3.4c-0.1-2.1-1.8-3.8-3.9-3.8C33,100.6,30.7,100.6,28.3,100.6z M33.3,103.9h1.2
				c0.5,0,0.9,0.4,0.9,0.9c0,0,0,0.1,0,0.1c0,0.5-0.4,0.9-0.9,0.9h-2.4c0-0.6,0-1.3,0-1.9H33.3z"/>
			<path id="path24" class="st1" d="M40.3,103.9c0-1.1,0-2.2,0-3.3h11.4v3.3c-1.2,0-2.4,0-3.6,0v8.1h-4.3v-8.1H40.3z"/>
			<path id="path26" class="st1" d="M78.1,100.6c1.3,0,2.5,0,3.8,0c1.3,1.6,2.5,3.2,3.8,4.7c0-1.6,0-3.2,0-4.7h3.8
				c0,3.8,0,7.6,0,11.4c-1.3,0-2.5,0-3.8,0c-1.3-1.6-2.5-3.2-3.8-4.7c-0.1,1.6,0,3.2,0,4.7h-3.8L78.1,100.6z"/>
			<path id="path28" class="st1" d="M97.1,100.6c1.3,0,2.5,0,3.8,0c1.3,1.6,2.5,3.2,3.8,4.7c0-1.6,0-3.2,0-4.7h3.7V112h-3.8
				c-1.3-1.6-2.5-3.2-3.8-4.8c0,1.6,0,3.2,0,4.8h-3.8C97.1,108.2,97.1,104.4,97.1,100.6z"/>
			<path id="path30" class="st1" d="M110.1,100.6c3.3,0,6.6,0,9.9,0c0,0.8,0,1.6,0,2.4c0,0.3,0,0.6-0.1,0.9c-2,0-4.1,0-6.1,0
				c0,0.4,0,0.7,0,1.1h5.2v2.8c-1.7,0-3.5,0-5.2,0c0,0.4,0,0.8,0,1.2c2.1,0,4.1,0,6.2,0v3h-9.9C110.1,108.2,110.2,104.4,110.1,100.6
				z"/>
			<path id="path32" class="st1" d="M121.4,100.6c3.8,0,7.6,0,11.4,0c0,1.1,0,2.2,0,3.3h-3.6v8.1H125c0-2.7,0-5.4,0-8.1
				c-1.2,0-2.4,0-3.6,0L121.4,100.6z"/>
			<path id="path34" class="st1" d="M133.7,100.6c1.3,0,2.6,0,3.8,0c0.3,1.7,0.6,3.3,1,5c0.6-1.5,1.3-3.1,1.9-4.6
				c0.6,1.5,1.2,3.1,1.9,4.6c0.3-1.7,0.6-3.3,1-5c1.3,0,2.5,0,3.8,0c-0.7,3.8-1.4,7.6-2.1,11.4c-1.1,0-2.1,0-3.2,0
				c-0.4-1.1-0.9-2-1.3-3.1c-0.5,1.1-0.9,2.1-1.4,3.1c-1.1,0-2.1,0-3.1,0C135.2,108.2,134.5,104.4,133.7,100.6z"/>
			<path id="path36" class="st1" d="M163.8,100.6h-3.4c0,3.8,0,7.6,0,11.4h3.8c0-1.1,0-2.2,0-3.4h1.2c0.5,1.1,1.1,2.2,1.7,3.3
				c1.4,0,2.8,0,4.2,0c-0.8-1.3-1.5-2.5-2.2-3.8c1.2-0.6,2-1.7,2.3-3v-0.9c-0.1-0.8-0.5-1.5-1-2.1c-0.8-0.9-1.9-1.4-3.1-1.4
				L163.8,100.6z M164.2,103.9h2.4c0.5,0,0.9,0.4,0.9,1c0,0.1,0,0.2-0.1,0.3c-0.1,0.4-0.5,0.6-0.9,0.6c-0.8,0-1.6,0-2.4,0
				C164.1,105.2,164.1,104.6,164.2,103.9L164.2,103.9z"/>
			<path id="path38" class="st1" d="M172.5,112c0-3.8,0-7.6,0-11.4c1.3,0,2.5,0,3.8,0c0,1.2,0,2.4,0,3.7c1-1.2,1.9-2.5,2.8-3.7
				c1.6,0,3.2,0,4.8,0c-1.5,1.8-2.9,3.6-4.4,5.4c1.4,2,3,3.9,4.4,5.9h-4.8c-0.9-1.4-1.9-2.8-2.8-4.3c0,1.4,0,2.8,0,4.2
				C175,112,173.8,112,172.5,112z"/>
			<path id="path52" class="st1" d="M185.8,108.9h2.5v0.5h-0.9c-0.1,0.9-0.1,1.7-0.1,2.6h-0.6c0-0.9,0-1.7,0-2.6h-0.9
				C185.8,109.3,185.8,109.1,185.8,108.9z"/>
			<path id="path54" class="st1" d="M188.7,108.9h0.9c0.2,0.8,0.4,1.7,0.6,2.5c0.2-0.8,0.4-1.6,0.6-2.5h0.9v3.1h-0.6
				c0-0.8,0-1.7,0-2.6c-0.3,0.8-0.4,1.7-0.6,2.6h-0.6c-0.2-0.8-0.4-1.7-0.6-2.5c-0.1,0.8,0,1.7,0,2.5h-0.6L188.7,108.9z"/>
			<polygon class="st6" points="323.1,0 295,0 295,37 323.1,37 323.1,28.2 307.9,28.2 307.9,23 323.1,23 323.1,14.1 307.9,14.1 
				307.9,8.9 323.1,8.9 323.1,0 323.1,0 			"/>
			<polygon class="st6" points="270.8,37 270.8,8.9 281.6,10.2 281.7,0 246.8,0 246.8,10.2 257.9,8.8 257.9,37 270.8,37 270.8,37 
							"/>
			<polygon class="st6" points="408.4,0 380.3,0 380.3,37 408.4,37 408.4,28.2 393.2,28.2 393.2,23 408.4,23 408.4,14.1 393.2,14.1 
				393.2,8.9 408.4,8.9 408.4,0 408.4,0 			"/>
			<polygon class="st6" points="350.5,0 337.7,0 337.7,37 365.8,37 365.8,28.2 350.5,28.2 350.5,0 350.5,0 			"/>
			<path class="st7" d="M422.7,112.4V49.1H238v63.4L422.7,112.4z M407.8,62.5v8.9h-15.2v5.2h15.2v8.9h-15.2v5.2h15.2v8.9h-28.2v-37
				L407.8,62.5z M327.1,61.9l25.3,15.2V62.5h12.9v37.7L340,85v14.6h-12.9L327.1,61.9L327.1,61.9z M312.5,99.6h-12.9v-37h12.9V99.6z
				 M274.9,77.5c-1.2-2.8-4.1-4.6-7.2-4.4c-2,0-3.9,0.7-5.2,2.1c-1.4,1.4-2.2,3.3-2.1,5.3c0,2.1,0.7,4.1,2.1,5.6
				c1.4,1.5,3.3,2.4,5.4,2.4c3,0,5.8-1.7,7.1-4.5l11.5,3.1c-1,3.9-3.5,7.3-6.9,9.4c-3.8,2.4-8.3,3.7-12.8,3.6
				c-10.3,0.4-18.9-7.7-19.2-17.9c0-0.5,0-1,0-1.4c-0.2-5,1.8-9.9,5.4-13.4c3.8-3.7,8.6-5.6,14.6-5.6c9.2,0,15.4,3.8,18.7,11.5
				L274.9,77.5z"/>
			<polygon class="st8" points="407.7,71.4 407.7,62.5 379.6,62.5 379.6,99.6 407.7,99.6 407.7,90.7 392.5,90.7 392.5,85.5 
				407.7,85.5 407.7,76.6 392.5,76.6 392.5,71.4 407.7,71.4 407.7,71.4 			"/>
			<polygon class="st8" points="352.3,77.1 327,61.9 327,99.6 339.9,99.6 339.9,85 365.1,100.2 365.1,62.5 352.3,62.5 352.3,77.1 
				352.3,77.1 			"/>
			<polygon class="st8" points="299.6,99.6 312.5,99.6 312.5,62.5 299.6,62.5 299.6,99.6 299.6,99.6 			"/>
			<path class="st8" d="M267.6,73.1c3.1-0.2,6,1.5,7.2,4.4l11.3-4.1c-3.3-7.6-9.6-11.5-18.7-11.5c-6,0-10.8,1.9-14.6,5.6
				c-3.6,3.5-5.5,8.4-5.4,13.4c-0.4,10.3,7.5,18.9,17.8,19.4c0.5,0,1,0,1.4,0c4.5,0.1,9-1.1,12.8-3.6c3.4-2.1,5.9-5.5,6.9-9.4
				l-11.6-3.1c-1.3,2.8-4.1,4.5-7.1,4.5c-2.1,0-4-0.9-5.4-2.4c-1.4-1.5-2.2-3.5-2.1-5.6c0-2,0.8-3.9,2.1-5.3
				C263.8,73.9,265.7,73.1,267.6,73.1L267.6,73.1z"/>
			<path class="st4" d="M822.1,113.1h-30.2V70h-19.6v43.1h-31V1.9h31v41.5h19.6V1.9h30.2L822.1,113.1L822.1,113.1z M960.8,113.6
				c31,0,56.2-25.8,56.2-57.1C1017,24.7,991.7,0,960.8,0c-31.3,0-47.2,22.8-51,32.1c0-13.8-13.8-30.2-29.7-30.2h-51.7v111.3h48.1
				c19.6,0,33.3-16.7,33.3-31.3C914,90.8,929.4,113.6,960.8,113.6z M872.5,68.4c4.5,0,8.1,4.3,8.1,9.3c0,5.2-3.6,9.5-8.1,9.5h-15.4
				V68.4H872.5z M872.5,26.6c4.5,0,8.1,4.3,8.1,9.3s-3.6,9.3-8.1,9.3h-15.4V26.6H872.5z M892.9,56.5c3.6-0.2,9.4-4.3,11.6-6.8
				c-0.9,3-0.9,12.4,0,15.4C902,61.4,896.5,57.1,892.9,56.5z M932.5,56.5c0-15.6,12.6-28.2,28.2-28.2c15.6,0,28.2,12.6,28.2,28.2
				c0,15.7-12.6,28.4-28.2,28.4C945.1,84.9,932.5,72.2,932.5,56.5z M960.8,78.8c12,0,22.2-9.9,22.2-22.3c0-12.4-10.2-22.2-22.2-22.2
				c-12.4,0-22.3,9.8-22.3,22.2c-0.1,12.3,9.8,22.2,22.1,22.3C960.6,78.8,960.7,78.8,960.8,78.8z"/>
		</g>
	</g>
</g>
</svg>
